<?xml version="1.0" encoding="utf-8"?>
<!-- Generator: Adobe Illustrator 22.1.0, SVG Export Plug-In . SVG Version: 6.00 Build 0)  -->
<svg version="1.1" id="Camada_1" xmlns="http://www.w3.org/2000/svg" xmlns:xlink="http://www.w3.org/1999/xlink" x="0px" y="0px"
	 viewBox="0 0 256 256" style="enable-background:new 0 0 256 256;" xml:space="preserve">
<g>
	<path d="M231.6,109.9V24.1c0-3.9-3.2-7.1-7.1-7.1h-92.9c-3.9,0-7.1,3.2-7.1,7.1v85.7c0,3.9,3.2,7.1,7.1,7.1h92.9
		C228.4,117,231.6,113.8,231.6,109.9z M160.1,74.1h7.1c3.9,0,7.1,3.2,7.1,7.1s-3.2,7.1-7.1,7.1h-7.1v10.7c0,2-1.6,3.6-3.6,3.6
		s-3.6-1.6-3.6-3.6V88.4h-7.1c-3.9,0-7.1-3.2-7.1-7.1s3.2-7.1,7.1-7.1h7.1V34.9c0-2,1.6-3.6,3.6-3.6s3.6,1.6,3.6,3.6V74.1z
		 M195.9,59.9h-7.1c-3.9,0-7.1-3.2-7.1-7.1s3.2-7.1,7.1-7.1h7.1V34.9c0-2,1.6-3.6,3.6-3.6s3.6,1.6,3.6,3.6v10.7h7.1
		c3.9,0,7.1,3.2,7.1,7.1s-3.2,7.1-7.1,7.1H203v39.3c0,2-1.6,3.6-3.6,3.6s-3.6-1.6-3.6-3.6V59.9z"/>
</g>
<g>
	<path d="M38,74.8c9.5,5.4,22.4,9.7,38.7,12.9c12.6,2.5,26,4,40.3,4.5v-74c0-4.5,3.7-8.1,8.1-8.1h64.1c-2-0.5-4.1-0.9-6.2-1.3
		C166.8,5.6,149,4,129.9,4S93,5.6,76.7,8.8C60.3,11.9,47.4,16.3,38,21.7C28.5,27.1,23.7,33,23.7,39.4v17.7
		C23.7,63.4,28.5,69.3,38,74.8z"/>
	<path d="M129.9,163.2c-21.8,0-42.2-2-61.2-5.9s-34-9.8-44.9-17.6v23.5c0,6.4,4.7,12.3,14.2,17.7c9.5,5.4,22.4,9.7,38.7,12.9
		s34,4.8,53.2,4.8s36.9-1.6,53.2-4.8s29.2-7.5,38.7-12.9c9.5-5.4,14.2-11.3,14.2-17.7v-23.5c-11,7.7-25.9,13.6-44.9,17.6
		S151.7,163.2,129.9,163.2z"/>
	<path d="M129.9,216.3c-21.8,0-42.2-2-61.2-5.9c-19-4-34-9.8-44.9-17.6v23.5c0,6.4,4.7,12.3,14.2,17.7c9.5,5.4,22.4,9.7,38.7,12.9
		c16.3,3.2,34,4.8,53.2,4.8s36.9-1.6,53.2-4.8c16.3-3.2,29.2-7.5,38.7-12.9c9.5-5.4,14.2-11.3,14.2-17.7v-23.5
		c-11,7.7-25.9,13.6-44.9,17.6C172.1,214.3,151.7,216.3,129.9,216.3z"/>
	<path d="M38,127.8c9.5,5.4,22.4,9.7,38.7,12.9c16.3,3.2,34,4.8,53.2,4.8s36.9-1.6,53.2-4.8c16.3-3.2,29.2-7.5,38.7-12.9
		c2.2-1.3,4.2-2.6,5.9-3.9H125.1c-4.5,0-8.1-3.7-8.1-8.1v-5.9c-17-0.6-33.2-2.5-48.4-5.7c-19-4-34-9.8-44.9-17.6v23.5
		C23.7,116.5,28.5,122.4,38,127.8z"/>
</g>
</svg>
